# xmcd
#
# Track frame offsets:
#	150
#	19935
#	33685
#	46652
#	68175
#	83860
#	101235
#	123717
#	142540
#	159915
#	175917
#	191565
#
# Disc length: 2754 seconds
#
# Revision: 1
# Processed by: cddbd v1.5PL3 Copyright (c) Steve Scherf et al.
# Submitted via: CDex 1.50Beta5
#
DISCID=9c0ac00c
DTITLE=狩人 - 出逢った人に
DYEAR=1994
DGENRE=Pop
TTITLE0=コスモス街道
TTITLE1=想い出なんかに
TTITLE2=別れの場面
TTITLE3=季節が変わる前に
TTITLE4=雨あがりのスケッチ
TTITLE5=滑走路
TTITLE6=あずさ2号
TTITLE7=ルナ
TTITLE8=秋風にからまわり
TTITLE9=誕生日
TTITLE10=卒業写真
TTITLE11=引き潮
EXTD=
EXTT0=
EXTT1=
EXTT2=
EXTT3=
EXTT4=
EXTT5=
EXTT6=
EXTT7=
EXTT8=
EXTT9=
EXTT10=
EXTT11=
PLAYORDER=
